<svg id="Layer_1" xmlns="http://www.w3.org/2000/svg" version="1.1" viewBox="0 0 481 798.7"><defs><style>.st0{fill:#d10058}.st9{fill:#a70070}.st13{fill:#ffa600}.st16{fill:#ea2238}.st17{fill:#5d6d78}.st18{fill:#f25d01}</style></defs><path class="st13" d="M240.8 239.8 224 .6c5.3-.4 11.4-.6 16.7-.6v239.8h.1z"/><path class="st18" d="M240.8 239.8 207.4 2.3c5.2-.7 11.4-1.4 16.6-1.8l16.7 239.2h.1z"/><path class="st16" d="M240.8 239.8 178.7 8.2c10.2-2.7 18.2-4.4 28.7-5.8l33.4 237.4z"/><path class="st0" d="M240.8 239.8 151 17.5c9.8-4 17.5-6.6 27.8-9.3l62 231.6z"/><path class="st9" d="M240.8 239.8 124.5 30.1c9.3-5.1 16.6-8.6 26.4-12.6l89.8 222.3h.1z"/><path d="M240.8 239.8 74.2 67.3c15.2-14.7 31.8-27 50.3-37.2l116.2 209.7h.1z" style="fill:#6e027f;fill-rule:evenodd"/><path d="M240.8 239.8 29.1 127.2c12.4-23.4 26.1-41.5 45.1-59.9l166.5 172.5h.1z" style="fill:#73e2d8;fill-rule:evenodd"/><path d="M240.8 239.8 4.6 198.1c4.6-26.1 12-47.5 24.4-70.9l211.7 112.6h.1z" style="fill:#29b0c3;fill-rule:evenodd"/><path d="m240.8 239.8-228.1 74C-.4 273.5-2.7 239.9 4.6 198.1l236.1 41.6z" style="fill:#0055a8;fill-rule:evenodd"/><path d="m240.8 239.8 45.8 235.4C167 498.4 50.5 429.8 12.8 313.9l228-74.1z" style="fill:#0084bb;fill-rule:evenodd"/><path d="M240.8 239.8V0c132.4 0 239.7 107.3 239.7 239.8s-79.6 213.1-194 235.4l-45.8-235.4h.1z" style="fill:#101e7f;fill-rule:evenodd"/><path class="st17" d="M2.5 549.4H.8v-12.8h1.7v12.8zM11.8 540.2c.5.2.8.6 1.1 1s.4 1 .4 1.7v6.4h-1.7v-6.1c0-1.3-.6-2-1.9-2s-.9 0-1.3.3c-.4.2-.7.5-1 .9s-.4 1-.4 1.7v5.2H5.3V540h1.6v1.3c.3-.5.7-.9 1.3-1.1.6-.2 1.2-.4 1.8-.4s1.2 0 1.7.4h.1zM16.6 548.8c-.6-.5-1-1.3-1.1-2.3h1.6c0 .6.3 1 .7 1.3.4.3.9.4 1.7.4s1.3 0 1.7-.4.6-.6.6-1.1-.1-.7-.4-.9-.6-.4-1.1-.5l-1.9-.4c-.9-.2-1.5-.5-1.9-.9s-.6-1-.6-1.6.1-1 .4-1.4.6-.7 1.2-.9c.5-.2 1.2-.3 1.9-.3 1.1 0 1.9.2 2.6.7s1.1 1.2 1.2 2.1h-1.6c-.1-.5-.3-.9-.7-1.1-.4-.3-.9-.4-1.5-.4s-1.1 0-1.4.3c-.3.2-.5.5-.5.9s.1.6.3.8c.2.2.6.4 1.1.5l1.8.4c.9.2 1.6.5 2.1 1 .4.4.7 1 .7 1.7s-.1 1.1-.5 1.6-.8.8-1.3 1c-.6.2-1.3.3-2.1.3-1.2 0-2.1-.3-2.7-.8h-.3zM26.9 538.4h-1.7v-1.8h1.7v1.8zm0 11h-1.7v-9.3h1.7v9.3zM36.3 540.1h1.6v9c0 1.4-.4 2.5-1.1 3.2s-1.8 1-3.2 1-2-.2-2.7-.7-1.1-1.1-1.2-2h1.6c.1.5.4.9.8 1.1.4.2.9.3 1.6.3s1.2 0 1.6-.3.7-.5.9-.9.3-.9.3-1.6V548c-.3.5-.7.8-1.2 1.1s-1.1.4-1.7.4-1.6-.2-2.2-.6-1.1-1-1.4-1.8-.5-1.6-.5-2.6.2-1.7.5-2.5c.3-.7.8-1.3 1.4-1.7s1.3-.6 2.1-.6 1.3.2 1.8.4c.5.3.9.7 1.2 1.2v-1.4l-.2.2zm-1.4 7.6c.4-.3.7-.7 1-1.2.2-.5.4-1.2.4-1.9s0-1.3-.3-1.8-.5-.9-.9-1.1c-.4-.2-.9-.4-1.4-.4-.8 0-1.4.3-1.9.8s-.7 1.4-.7 2.4.1 1.3.3 1.9c.2.5.5 1 .9 1.2.4.2.8.4 1.4.4s1 0 1.4-.4h-.2zM47.1 540.2c.5.2.8.6 1.1 1s.4 1 .4 1.7v6.4h-1.7v-6.1c0-1.3-.6-2-1.9-2s-.9 0-1.3.3c-.4.2-.7.5-1 .9s-.4 1-.4 1.7v5.2h-1.7v-12.8h1.7v4.7c.3-.5.7-.8 1.3-1 .5-.2 1.1-.4 1.8-.4s1.2 0 1.7.4zM53.7 541.3v5.8c0 .3 0 .6.2.7 0 0 .4.2.7.2h1.2v1.4h-1.7c-.7 0-1.2-.2-1.6-.5s-.5-.8-.5-1.6v-6h-1.4v-1.2H52v-2.9h1.7v2.9h2.1v1.2h-2.1zM71.2 548.2v1.2h-.9c-1 0-1.5-.5-1.6-1.4-.3.5-.8.9-1.4 1.2s-1.3.4-2 .4-1.2 0-1.6-.3c-.5-.2-.8-.5-1.1-.9-.2-.4-.4-.9-.4-1.5s.2-1.4.8-1.9c.5-.5 1.3-.8 2.4-1l2.4-.3c.2 0 .4 0 .5-.2 0 0 .2-.3.2-.5v-.4c0-.5-.2-.8-.5-1.1-.3-.2-.9-.3-1.6-.3s-1.2 0-1.5.4-.5.7-.6 1.3h-1.6c0-1 .4-1.8 1.1-2.3.6-.5 1.6-.8 2.8-.8s2.1.2 2.7.7.9 1.2.9 2.2v4.5c0 .3 0 .5.2.6s.3.2.6.2h.3v.2zM67 548c.4-.2.8-.5 1-.8s.4-.7.4-1.1v-1.3l-2.8.4c-.6 0-1.1.3-1.4.5s-.4.6-.4 1 .2.8.5 1.1c.3.3.8.4 1.3.4s.9 0 1.4-.3zM79.5 540.5c.6.4 1.1.9 1.4 1.6.3.7.5 1.5.5 2.4s-.2 1.8-.5 2.6-.8 1.4-1.4 1.8-1.3.7-2.1.7-1.2-.2-1.8-.5-.9-.7-1.2-1.2v1.5H73v-12.8h1.7v4.7c.3-.4.7-.8 1.2-1s1-.3 1.6-.3 1.5.2 2.1.6zm-.9 7.2c.4-.3.7-.7.9-1.3s.3-1.2.3-1.9c0-1-.2-1.8-.7-2.4s-1.1-.8-1.9-.8-1 0-1.4.4-.7.6-.9 1.1c-.2.5-.3 1.1-.3 1.8s0 1.3.3 1.9.6.9.9 1.2c.4.3.9.4 1.4.4s1-.2 1.4-.5zM85.4 549c-.7-.4-1.2-1-1.6-1.7s-.6-1.6-.6-2.5.2-1.8.6-2.6.9-1.3 1.6-1.7 1.5-.6 2.4-.6 1.6.2 2.3.6c.7.4 1.2 1 1.6 1.7s.6 1.6.6 2.5-.2 1.8-.6 2.6-.9 1.3-1.6 1.8-1.4.6-2.3.6-1.6-.2-2.3-.6zm3.8-1.2c.4-.3.8-.7 1-1.2s.3-1.2.3-1.9 0-1.3-.3-1.8-.6-.9-1-1.2-.9-.4-1.5-.4-1.1 0-1.5.4c-.4.3-.8.7-1 1.2s-.3 1.1-.3 1.8 0 1.3.3 1.8.6.9 1 1.2.9.4 1.5.4 1.1-.2 1.5-.5v.2zM100.7 540.1h1.7v9.3h-1.6v-1.3c-.3.5-.7.9-1.3 1.1s-1.1.4-1.8.4-1.2 0-1.7-.4c-.5-.2-.8-.6-1.1-1-.2-.5-.4-1-.4-1.7v-6.4h1.7v6.1c0 1.3.6 2 1.9 2s.9 0 1.3-.3c.4-.2.7-.5 1-.9s.4-1 .4-1.7v-5.2zM107.5 541.3v5.8c0 .3 0 .6.2.7 0 0 .4.2.7.2h1.2v1.4h-1.7c-.7 0-1.2-.2-1.6-.5s-.5-.8-.5-1.6v-6h-1.4v-1.2h1.4v-2.9h1.7v2.9h2.1v1.2h-2.1zM118.8 541.3v5.8c0 .3 0 .6.2.7 0 0 .4.2.7.2h1.2v1.4h-1.7c-.7 0-1.2-.2-1.6-.5s-.5-.8-.5-1.6v-6h-1.4v-1.2h1.4v-2.9h1.7v2.9h2.1v1.2h-2.1zM129.3 540.2c.5.2.8.6 1.1 1s.4 1 .4 1.7v6.4h-1.7v-6.1c0-1.3-.6-2-1.9-2s-.9 0-1.3.3c-.4.2-.7.5-1 .9s-.4 1-.4 1.7v5.2h-1.7v-12.8h1.7v4.7c.3-.5.7-.8 1.3-1 .5-.2 1.1-.4 1.8-.4s1.2 0 1.7.4zM141.7 545.1h-7c0 1 .3 1.8.8 2.3s1.2.8 2 .8 1.2 0 1.6-.4c.4-.3.7-.7.9-1.3l1.5.2c-.3.9-.8 1.6-1.5 2.1s-1.6.8-2.6.8-1.7-.2-2.4-.6-1.2-1-1.5-1.7-.5-1.6-.5-2.5.2-1.8.5-2.5.9-1.3 1.5-1.7 1.4-.6 2.3-.6 1.6.2 2.3.6 1.1.9 1.5 1.6c.3.7.5 1.5.5 2.5v.6-.2zm-6.1-3.2c-.5.5-.8 1.1-.9 2h5.4c-.1-.9-.4-1.5-.9-2s-1.1-.7-1.8-.7-1.4.2-1.9.7zM155.2 536.6h1.7v12.8h-1.4v-1.5c-.3.5-.7.9-1.2 1.2s-1.1.5-1.8.5-1.5-.2-2.2-.6-1.1-1-1.4-1.8c-.3-.8-.5-1.6-.5-2.6s.2-1.7.5-2.5c.3-.7.8-1.3 1.4-1.7.6-.4 1.3-.6 2.1-.6s1.1 0 1.6.3.9.6 1.2 1v-4.6zm-1.2 11.1c.4-.3.7-.7 1-1.2.2-.5.4-1.2.4-1.9s-.1-1.3-.3-1.8-.5-.9-.9-1.1-.9-.4-1.4-.4c-.8 0-1.5.3-1.9.8s-.7 1.4-.7 2.4.1 1.3.3 1.9c.2.5.5 1 .9 1.2s.8.4 1.4.4 1 0 1.4-.4h-.2zM168.2 548.2v1.2h-.9c-1 0-1.5-.5-1.6-1.4-.3.5-.8.9-1.4 1.2s-1.3.4-2 .4-1.2 0-1.6-.3c-.5-.2-.8-.5-1.1-.9-.2-.4-.4-.9-.4-1.5s.2-1.4.8-1.9c.5-.5 1.3-.8 2.4-1l2.4-.3c.2 0 .4 0 .5-.2.1 0 .2-.3.2-.5v-.4c0-.5-.2-.8-.5-1.1-.3-.2-.9-.3-1.6-.3s-1.2 0-1.5.4-.5.7-.6 1.3h-1.6c0-1 .5-1.8 1.1-2.3s1.6-.8 2.8-.8 2.1.2 2.7.7.9 1.2.9 2.2v4.5c0 .3 0 .5.2.6s.3.2.6.2h.3v.2zm-4.2-.2c.4-.2.8-.5 1-.8s.4-.7.4-1.1v-1.3l-2.8.4c-.6 0-1.1.3-1.4.5s-.4.6-.4 1 .2.8.5 1.1.8.4 1.3.4 1 0 1.4-.3zM172.3 541.3v5.8c0 .3 0 .6.2.7s.4.2.7.2h1.2v1.4h-1.7c-.7 0-1.2-.2-1.6-.5s-.5-.8-.5-1.6v-6h-1.4v-1.2h1.4v-2.9h1.7v2.9h2.1v1.2h-2.1zM184.9 548.2v1.2h-.9c-1 0-1.5-.5-1.6-1.4-.3.5-.8.9-1.4 1.2s-1.3.4-2 .4-1.2 0-1.6-.3c-.5-.2-.8-.5-1.1-.9-.2-.4-.4-.9-.4-1.5s.2-1.4.8-1.9c.5-.5 1.3-.8 2.4-1l2.4-.3c.2 0 .4 0 .5-.2.1 0 .2-.3.2-.5v-.4c0-.5-.2-.8-.5-1.1-.3-.2-.9-.3-1.6-.3s-1.2 0-1.5.4-.5.7-.6 1.3h-1.6c0-1 .5-1.8 1.1-2.3s1.6-.8 2.8-.8 2.1.2 2.7.7.9 1.2.9 2.2v4.5c0 .3 0 .5.2.6s.3.2.6.2h.3v.2zm-4.2-.2c.4-.2.8-.5 1-.8s.4-.7.4-1.1v-1.3l-2.8.4c-.6 0-1.1.3-1.4.5s-.4.6-.4 1 .2.8.5 1.1.8.4 1.3.4 1 0 1.4-.3zM193.2 538.4h-1.7v-1.8h1.7v1.8zm0 11h-1.7v-9.3h1.7v9.3zM202.4 540.2c.5.2.8.6 1.1 1s.4 1 .4 1.7v6.4h-1.7v-6.1c0-1.3-.6-2-1.9-2s-.9 0-1.3.3-.7.5-1 .9-.4 1-.4 1.7v5.2h-1.7V540h1.5v1.3c.3-.5.7-.9 1.3-1.1s1.1-.4 1.8-.4 1.2 0 1.7.4h.2zM213.9 541.3v5.8c0 .3 0 .6.2.7s.4.2.7.2h1.2v1.4h-1.7c-.7 0-1.2-.2-1.6-.5s-.5-.8-.5-1.6v-6h-1.4v-1.2h1.4v-2.9h1.7v2.9h2.1v1.2h-2.1zM224.4 540.2c.5.2.8.6 1.1 1s.4 1 .4 1.7v6.4h-1.7v-6.1c0-1.3-.6-2-1.9-2s-.9 0-1.3.3-.7.5-1 .9-.4 1-.4 1.7v5.2h-1.7v-12.8h1.7v4.7c.3-.5.7-.8 1.3-1 .5-.2 1.1-.4 1.8-.4s1.2 0 1.7.4zM230.4 538.4h-1.7v-1.8h1.7v1.8zm0 11h-1.7v-9.3h1.7v9.3zM233.7 548.8c-.6-.5-1-1.3-1.1-2.3h1.6c0 .6.3 1 .7 1.3s.9.4 1.7.4 1.3 0 1.7-.4.6-.6.6-1.1-.1-.7-.4-.9-.6-.4-1.1-.5l-1.9-.4c-.9-.2-1.5-.5-2-.9s-.6-1-.6-1.6.1-1 .4-1.4.6-.7 1.2-.9c.5-.2 1.2-.3 1.9-.3 1.1 0 1.9.2 2.6.7s1.1 1.2 1.2 2.1h-1.6c-.1-.5-.3-.9-.7-1.1-.4-.3-.9-.4-1.5-.4s-1.1 0-1.4.3c-.3.2-.5.5-.5.9s.1.6.3.8.6.4 1.1.5l1.8.4c1 .2 1.6.5 2.1 1 .4.4.7 1 .7 1.7s-.1 1.1-.5 1.6-.8.8-1.3 1c-.6.2-1.3.3-2.1.3-1.2 0-2.1-.3-2.7-.8h-.2zM248.7 549.1c-.6-.4-1.1-.9-1.5-1.6-.4-.7-.5-1.6-.5-2.6s.2-1.9.5-2.7c.4-.7.9-1.3 1.5-1.7s1.4-.6 2.3-.6 2 .3 2.7.8c.7.6 1.1 1.4 1.3 2.4h-1.6c-.2-1.3-1-1.9-2.3-1.9s-1.6.3-2.1.9-.7 1.5-.7 2.6.2 2 .7 2.6 1.1.9 2 .9 1.2-.2 1.6-.5.6-.9.8-1.5h1.5c-.2 1.1-.6 2-1.3 2.6s-1.6.9-2.8.9-1.6-.2-2.3-.5h.2zM263.6 540.2c.5.2.8.6 1.1 1s.4 1 .4 1.7v6.4h-1.7v-6.1c0-1.3-.6-2-1.9-2s-.9 0-1.3.3-.7.5-1 .9-.4 1-.4 1.7v5.2h-1.7v-12.8h1.7v4.7c.3-.5.7-.8 1.3-1 .5-.2 1.1-.4 1.8-.4s1.2 0 1.7.4zM276.4 548.2v1.2h-.9c-1 0-1.5-.5-1.6-1.4-.3.5-.8.9-1.4 1.2s-1.3.4-2 .4-1.2 0-1.6-.3c-.5-.2-.8-.5-1.1-.9-.2-.4-.4-.9-.4-1.5s.2-1.4.8-1.9c.5-.5 1.3-.8 2.4-1l2.4-.3c.2 0 .4 0 .5-.2.1 0 .2-.3.2-.5v-.4c0-.5-.2-.8-.5-1.1-.3-.2-.9-.3-1.6-.3s-1.2 0-1.5.4-.5.7-.6 1.3h-1.6c0-1 .5-1.8 1.1-2.3s1.6-.8 2.8-.8 2.1.2 2.7.7.9 1.2.9 2.2v4.5c0 .3 0 .5.2.6s.3.2.6.2h.3v.2zm-4.2-.2c.4-.2.8-.5 1-.8s.4-.7.4-1.1v-1.3l-2.8.4c-.6 0-1.1.3-1.4.5s-.4.6-.4 1 .2.8.5 1.1.8.4 1.3.4 1 0 1.4-.3zM283.1 539.9v1.6h-.6c-.4 0-.8 0-1.2.3-.4.2-.7.5-1 1s-.4 1-.4 1.5v5.1h-1.7v-9.3h1.5v1.8c.6-1.4 1.6-2 2.9-2h.5zM287.6 541.3v5.8c0 .3 0 .6.2.7s.4.2.7.2h1.2v1.4H288c-.7 0-1.2-.2-1.6-.5s-.5-.8-.5-1.6v-6h-1.4v-1.2h1.4v-2.9h1.7v2.9h2.1v1.2h-2.1zM293.8 549.4h-2v-1.8h2v1.8z"/><path style="fill:none;stroke:#cddbde;stroke-width:1.4px" d="M.7 578.1h479.6V798H.7z"/><g><path class="st17" d="M59.7 611.7c.3.4.5.9.5 1.6s0 1.1-.4 1.5c-.3.4-.6.8-1.1 1s-1.1.3-1.8.3h-4.6v-10h4.5c.6 0 1.1 0 1.6.3s.8.5 1 .8c.2.4.4.8.4 1.3s0 1-.4 1.3-.6.7-1.1.8c.6.2 1.1.5 1.4.9v.2zm-6.2-4.4v3.1h2.9c.6 0 1.1 0 1.4-.4s.5-.7.5-1.2 0-.9-.4-1.1-.7-.4-1.3-.4h-3.1zm3.2 7.7c.7 0 1.2-.2 1.5-.5.4-.3.5-.7.5-1.3s-.2-1-.5-1.3c-.4-.3-.9-.5-1.5-.5h-3.2v3.5h3.2zM66.1 608.7v1.2h-.5c-.3 0-.6 0-1 .2-.3.2-.6.4-.8.8s-.3.7-.3 1.2v4h-1.3v-7.2h1.2v1.4c.5-1 1.2-1.6 2.2-1.6h.4zM74 615.2v1h-.7c-.8 0-1.2-.3-1.2-1.1-.2.4-.6.7-1.1.9s-1 .3-1.6.3-.9 0-1.3-.2-.6-.4-.9-.7c-.2-.3-.3-.7-.3-1.1s.2-1.1.6-1.5 1-.6 1.9-.8l1.9-.2c.2 0 .3 0 .4-.2s0-.2 0-.4v-.3c0-.4 0-.7-.4-.8s-.7-.3-1.2-.3-.9 0-1.2.3c-.3.2-.4.5-.4 1h-1.3c0-.8.4-1.4.9-1.8s1.2-.6 2.2-.6 1.6.2 2.1.6.7 1 .7 1.7v4c0 .1.3 0 .5 0h.2zm-3.3-.1c.3-.2.6-.4.8-.6s.3-.5.3-.8v-1l-2.2.3c-.5 0-.8.2-1.1.4s-.3.5-.3.8 0 .7.4.8.6.3 1 .3.7 0 1.1-.2zM81 615.1v1h-6v-.9l3.1-4c.5-.6.9-1 1.1-1.3h-4v-1h5.6v.8l-3.3 4.1c-.5.6-.8 1-1.1 1.3H81zM84.1 607.6h-1.3v-1.4h1.3v1.4zm0 8.5h-1.3v-7.2h1.3v7.2zM87.6 616.1h-1.3v-10h1.3v10zM97.1 613.1h-3.9v-1.2h3.9v1.2zM108.2 606.2v6.5h1.6v1.1h-1.6v2.3h-1.3v-2.3h-4.5v-1.2l4.8-6.4h1zm-4.5 6.4h3.2v-4.2l-3.2 4.2zM113.1 616.1c.2-2 .7-3.7 1.3-5.1s1.6-2.6 2.9-3.7h-6.1v-1.2h7.6v1c-.9.7-1.6 1.5-2.3 2.3s-1.1 1.8-1.4 2.9c-.4 1.1-.6 2.3-.7 3.7H113zM122 611c-.4-.5-.6-1.2-.6-2.2s.2-1.6.6-2.1 1-.7 1.7-.7 1.4.2 1.8.7.6 1.2.6 2.1-.2 1.7-.6 2.2-1 .7-1.8.7-1.4-.2-1.7-.7zm2.7-.7c.2-.3.3-.8.3-1.5s0-1.1-.3-1.4-.5-.4-.9-.4-.7.2-.9.4-.3.8-.3 1.4 0 1.2.3 1.5c.2.3.5.4.9.4s.7-.2.9-.4zm.9 6.1h-1.3l6.3-10.4h1.3l-6.2 10.4zm5-.8c-.4-.5-.6-1.2-.6-2.1s.2-1.7.6-2.1 1-.7 1.7-.7 1.4.2 1.8.7.6 1.2.6 2.1-.2 1.7-.6 2.1c-.4.5-1 .7-1.8.7s-1.4-.2-1.7-.7zm2.6-.7c.2-.3.3-.8.3-1.4s-.1-1.1-.3-1.4-.5-.5-.9-.5-.7.2-.9.4c-.2.3-.3.8-.3 1.5s.1 1.2.3 1.4c.2.3.5.4.9.4s.7-.2.9-.4z"/><circle cx="33.2" cy="611.4" r="8" style="fill:#101e7f"/></g><g><path class="st17" d="m57.6 644.4 2.7-7.6h1.8v10h-1.2v-8.4l-.7 1.8-2.4 6.6h-1.2L54 640l-.7-1.6v8.4h-1.2v-10h1.8l2.8 7.6.3 1 .3-1h.3zM70.7 643.4h-5.4c0 .8.2 1.4.6 1.8s.9.6 1.6.6.9 0 1.2-.3c.3-.2.6-.5.7-1h1.2c-.2.9-.6 1.4-1.2 1.8-.6.4-1.2.6-2 .6s-1.3-.2-1.8-.5-.9-.8-1.2-1.3c-.3-.6-.4-1.2-.4-2s0-1.4.4-2 .7-1 1.2-1.3 1.1-.5 1.8-.5 1.3.2 1.8.4c.5.3.9.7 1.1 1.2.3.5.4 1.2.4 1.9v.5zm-4.7-2.5c-.4.4-.6.9-.7 1.6h4.2c0-.7-.3-1.2-.7-1.6-.4-.4-.8-.5-1.4-.5s-1.1.2-1.4.5zM78 639.5l-2.6 3.4 2.9 3.8h-1.6l-1.5-2.2-.5-.8-.5.8-1.5 2.2h-1.6l3-3.8-2.6-3.4h1.6l1.2 1.8.5.8.5-.8 1.2-1.8h1.6zM81.2 638.1h-1.3v-1.4h1.3v1.4zm0 8.6h-1.3v-7.2h1.3v7.2zM84.6 646.5c-.5-.3-.9-.7-1.2-1.3s-.4-1.2-.4-2 0-1.5.4-2.1.7-1 1.2-1.3 1.1-.5 1.8-.5 1.5.2 2.1.7c.5.4.9 1.1 1 1.9h-1.2c-.2-1-.8-1.5-1.8-1.5s-1.2.2-1.6.7-.5 1.1-.5 2 .2 1.5.6 2 .9.7 1.6.7.9 0 1.2-.4c.3-.3.5-.7.6-1.2h1.2c0 .9-.5 1.5-1 2s-1.2.7-2.1.7-1.3 0-1.8-.4zM92.4 646.4c-.5-.3-.9-.8-1.2-1.3-.3-.6-.4-1.2-.4-2s0-1.4.4-2 .7-1 1.2-1.3 1.1-.5 1.8-.5 1.3.2 1.8.5.9.7 1.2 1.3c.3.6.4 1.2.4 2s0 1.4-.4 2-.7 1-1.2 1.4-1.1.5-1.8.5-1.3-.2-1.8-.5zm3-.9c.3-.2.6-.6.8-1 .2-.4.3-.9.3-1.5s0-1-.3-1.4c-.2-.4-.4-.7-.8-.9-.3-.2-.7-.3-1.2-.3s-.8 0-1.2.3c-.3.2-.6.5-.8 1s-.3.9-.3 1.4 0 1 .3 1.4c.2.4.4.7.8 1 .3.2.7.3 1.2.3s.9 0 1.2-.3zM106.8 643.7h-3.9v-1.2h3.9v1.2zM119.1 645.6v1.2h-6.6c0-.6 0-1.2.3-1.7.2-.5.4-.9.8-1.2.3-.3.7-.7 1.2-1l1.7-1.1c.4-.3.8-.6 1-.9.2-.3.3-.7.3-1.2s-.2-1-.5-1.4-.8-.5-1.4-.5-1.1.2-1.4.6-.5.9-.5 1.7v.2h-1.3v-.2c0-.7 0-1.3.4-1.8s.7-.9 1.2-1.2 1.1-.4 1.7-.4 1.2 0 1.6.4c.5.2.9.6 1.1 1 .3.5.4 1 .4 1.6 0 1.2-.6 2.2-1.9 3l-1.2.8c-.5.3-.9.6-1.1.8s-.5.4-.6.6c0 .2-.2.4-.2.7h5zM122.8 646.5c-.6-.3-1-.7-1.3-1.2s-.5-1.1-.5-1.8h1.3c0 .7.3 1.3.7 1.7s1 .5 1.8.5 1.4-.2 1.8-.5.6-.8.6-1.4-.2-1-.5-1.3-.9-.5-1.6-.5H124v-1.1h.7c.6 0 1.1 0 1.4-.4.3-.3.5-.7.5-1.1s-.2-.9-.5-1.2-.8-.4-1.5-.4-1.1.2-1.4.5-.5.8-.5 1.5h-1.3c0-1 .4-1.8.9-2.3.6-.5 1.4-.8 2.4-.8s1.2 0 1.7.3.9.5 1.1.9c.3.4.4.9.4 1.4 0 1-.5 1.7-1.5 2.1.7.2 1.2.4 1.5.9.3.5.5.9.5 1.6s-.2 1.2-.5 1.6-.8.8-1.3 1.1c-.6.3-1.2.4-1.9.4s-1.4 0-1.9-.4zM131.7 641.6c-.4-.5-.6-1.2-.6-2.2s.2-1.7.6-2.1c.4-.5 1-.7 1.7-.7s1.4.2 1.8.7.6 1.2.6 2.1-.2 1.7-.6 2.2c-.4.5-1 .7-1.8.7s-1.4-.2-1.7-.7zm2.7-.7c.2-.3.3-.8.3-1.5s-.1-1.1-.3-1.4c-.2-.3-.5-.4-.9-.4s-.7.2-.9.4-.3.8-.3 1.4.1 1.2.3 1.5.5.4.9.4.7-.2.9-.4zm.9 6H134l6.3-10.4h1.3l-6.2 10.4h-.1zm5-.7c-.4-.5-.6-1.2-.6-2.1s.2-1.7.6-2.1c.4-.5 1-.7 1.7-.7s1.4.2 1.8.7c.4.5.6 1.2.6 2.1s-.2 1.7-.6 2.1c-.4.5-1 .7-1.8.7s-1.4-.2-1.7-.7zm2.7-.7c.2-.3.3-.8.3-1.4s-.1-1.1-.3-1.4-.5-.5-.9-.5-.7.2-.9.4c-.2.3-.3.8-.3 1.5s.1 1.2.3 1.4c.2.3.5.4.9.4s.7-.2.9-.4z"/><circle cx="33.2" cy="642" r="8" style="fill:#0084bb"/></g><g><path class="st17" d="M54.2 738.1c-.7-.4-1.3-1.1-1.7-1.9-.4-.8-.6-1.7-.6-2.7s.2-1.9.6-2.7c.4-.8.9-1.4 1.7-1.8.7-.4 1.5-.7 2.4-.7s1.7.2 2.5.7c.7.4 1.3 1 1.7 1.8s.6 1.7.6 2.7-.2 1.9-.6 2.7c-.4.8-.9 1.4-1.7 1.8-.7.4-1.5.7-2.5.7s-1.7-.2-2.4-.7zm4.2-1c.5-.3.9-.8 1.2-1.4.3-.6.4-1.3.4-2.2s0-1.5-.4-2.1c-.3-.6-.7-1.1-1.2-1.4-.5-.3-1.1-.5-1.8-.5s-1.2.2-1.8.5-.9.8-1.2 1.4c-.3.6-.4 1.3-.4 2.1s0 1.5.4 2.1c.3.6.7 1.1 1.2 1.4.5.3 1.1.5 1.8.5s1.2-.2 1.8-.5zM65.2 732.2v5c0 .1.3.2.6.2h.9v1.1h-1.3c-.6 0-1 0-1.2-.4-.3-.3-.4-.7-.4-1.2v-4.7h-1.1v-.9h1.1v-2.2h1.3v2.3h1.6v.9h-1.6zM73.3 731.4c.4.2.6.5.9.8.2.4.3.8.3 1.3v5h-1.3v-4.8c0-1-.5-1.5-1.4-1.5s-.7 0-1 .2-.6.4-.8.7-.3.8-.3 1.3v4h-1.3v-10h1.3v3.7c.2-.3.6-.6 1-.8s.9-.3 1.4-.3.9 0 1.3.3zM83 735.2h-5.4c0 .8.2 1.4.6 1.8s.9.6 1.6.6.9 0 1.2-.3c.3-.2.6-.5.7-1h1.2c-.2.9-.6 1.4-1.2 1.8-.6.4-1.2.6-2 .6s-1.3-.2-1.8-.5-.9-.8-1.2-1.3c-.3-.6-.4-1.2-.4-2s0-1.4.4-2 .7-1 1.2-1.3 1.1-.5 1.8-.5 1.3 0 1.8.4.9.7 1.1 1.2c.3.5.4 1.2.4 1.9v.5zm-4.7-2.5c-.4.4-.6.9-.7 1.6h4.2c0-.7-.3-1.2-.7-1.6s-.8-.5-1.4-.5-1.1.2-1.4.5zM88.6 731.1v1.2h-.5c-.3 0-.6 0-1 .2-.3.2-.6.4-.8.8s-.3.7-.3 1.2v4h-1.3v-7.2h1.2v1.4c.5-1 1.2-1.6 2.2-1.6h.5zM97.2 735.5h-3.9v-1.2h3.9v1.2zM104.5 738.4c-.5-.2-.9-.6-1.1-1s-.5-.9-.5-1.5h1.3c0 .6.3 1 .7 1.3s.9.5 1.4.5 1.2-.2 1.6-.6.6-1 .6-1.7 0-.9-.2-1.2-.4-.6-.7-.8c-.3-.2-.7-.3-1.1-.3-.8 0-1.4.3-1.8.9h-1.3l1-5.3h5v1.2h-4.1l-.5 2.8c.3-.2.6-.3.9-.5.3 0 .7-.2 1.1-.2.6 0 1.2.2 1.7.5s.8.7 1.1 1.2.4 1.1.4 1.7 0 1.2-.4 1.8c-.3.5-.7.9-1.2 1.2s-1.1.5-1.9.5-1.2 0-1.6-.3l-.4-.2zM113.2 733.4c-.4-.5-.6-1.2-.6-2.2s.2-1.7.6-2.1c.4-.5 1-.7 1.7-.7s1.4.2 1.8.7.6 1.2.6 2.1-.2 1.7-.6 2.2-1 .7-1.8.7-1.4-.2-1.7-.7zm2.7-.7c.2-.3.3-.8.3-1.5s0-1.1-.3-1.4c-.2-.3-.5-.4-.9-.4s-.7.2-.9.4-.3.8-.3 1.4 0 1.2.3 1.5c.2.3.5.4.9.4s.7-.2.9-.4zm.8 6h-1.3l6.3-10.4h1.3l-6.2 10.4h-.1zm5-.7c-.4-.5-.6-1.2-.6-2.1s.2-1.7.6-2.1c.4-.5 1-.7 1.7-.7s1.4.2 1.8.7.6 1.2.6 2.1-.2 1.6-.6 2.1-1 .7-1.8.7-1.4-.2-1.7-.7zm2.7-.7c.2-.3.3-.8.3-1.4s0-1.1-.3-1.4-.5-.5-.9-.5-.7.2-.9.4c-.2.3-.3.8-.3 1.5s0 1.2.3 1.4c.2.3.5.4.9.4s.7-.2.9-.4z"/></g><circle cx="33.2" cy="733.8" r="8" style="fill:#73e2d8"/><g><path class="st17" d="M53.5 763.9v3.4h5.9v1.1h-7.2v-10h7.1v1.1h-5.8v3.1h5.3v1.1h-5.3v.2zM62.6 768.3c-.5-.3-.9-.7-1.2-1.3s-.4-1.2-.4-2 0-1.5.4-2.1.7-1 1.2-1.3 1.1-.5 1.8-.5 1.5.2 2.1.7c.5.4.9 1.1 1 1.9h-1.2c-.2-1-.8-1.5-1.8-1.5s-1.2.2-1.6.7c-.4.5-.5 1.1-.5 2s.2 1.5.6 2c.4.5.9.7 1.6.7s.9 0 1.2-.4c.3-.3.5-.7.6-1.2h1.2c0 .9-.5 1.5-1 2s-1.2.7-2.1.7-1.3 0-1.8-.4zM74 761.3h1.3v7.2h-1.2v-1c-.2.4-.6.7-1 .9s-.9.3-1.4.3-.9 0-1.3-.3-.6-.5-.9-.8-.3-.8-.3-1.3v-5h1.3v4.8c0 1 .5 1.5 1.4 1.5s.7 0 1-.2.6-.4.8-.7c.2-.3.3-.8.3-1.3v-4zM84.2 767.6v1h-.7c-.8 0-1.2-.3-1.2-1.1-.2.4-.6.7-1.1.9s-1 .3-1.6.3-.9 0-1.3-.2-.6-.4-.9-.7c-.2-.3-.3-.7-.3-1.1s.2-1.1.6-1.5 1-.6 1.9-.8l1.9-.2c.2 0 .3 0 .4-.2v-.7c0-.4 0-.7-.4-.8s-.7-.3-1.2-.3-.9 0-1.2.3c-.3.2-.4.5-.4 1h-1.3c0-.8.4-1.4.9-1.8s1.2-.6 2.2-.6 1.6.2 2.1.6.7 1 .7 1.7v4h.7zm-3.3-.1c.3-.2.6-.4.8-.6s.3-.5.3-.8v-1l-2.2.3c-.5 0-.8.2-1.1.4s-.3.5-.3.8 0 .7.4.8c.2.2.6.3 1 .3s.7 0 1.1-.2zM90.4 758.6h1.3v10h-1.1v-1.2c-.2.4-.5.7-.9.9s-.9.4-1.4.4-1.2-.2-1.7-.5-.8-.8-1.1-1.4-.4-1.2-.4-2 0-1.4.4-1.9c.3-.6.6-1 1.1-1.3s1-.5 1.6-.5.9 0 1.3.3.7.4.9.8v-3.6zm-.9 8.6c.3-.2.6-.5.8-1 .2-.4.3-.9.3-1.5s0-1-.3-1.4c-.2-.4-.4-.7-.7-.9s-.7-.3-1.1-.3c-.6 0-1.1.2-1.5.7-.4.4-.5 1.1-.5 1.9s0 1 .2 1.5c.2.4.4.7.7 1s.6.3 1.1.3.8 0 1.1-.3zM95.2 768.2c-.5-.3-.9-.8-1.2-1.3s-.4-1.2-.4-2 0-1.4.4-2 .7-1 1.2-1.3 1.1-.5 1.8-.5 1.3.2 1.8.5.9.7 1.2 1.3.4 1.2.4 2 0 1.4-.4 2-.7 1-1.2 1.4-1.1.5-1.8.5-1.3-.2-1.8-.5zm3-.9c.3-.2.6-.6.8-1 .2-.4.3-.9.3-1.5s0-1-.3-1.4c-.2-.4-.4-.7-.8-.9-.3-.2-.7-.3-1.2-.3s-.8 0-1.2.3c-.3.2-.6.5-.8 1-.2.4-.3.9-.3 1.4s0 1 .3 1.4.4.7.8 1c.3.2.7.3 1.2.3s.9 0 1.2-.3zM106.1 761.1v1.2h-.5c-.3 0-.6 0-1 .2-.3.2-.6.4-.8.8s-.3.7-.3 1.2v4h-1.3v-7.2h1.2v1.4c.5-1 1.2-1.6 2.2-1.6h.5zM114.8 765.5h-3.9v-1.2h3.9v1.2zM125.8 758.6v6.5h1.6v1.1h-1.6v2.3h-1.3v-2.3H120V765l4.8-6.4h1zm-4.5 6.4h3.2v-4.2l-3.2 4.2zM130.7 763.4c-.4-.5-.6-1.2-.6-2.2s.2-1.7.6-2.1c.4-.5 1-.7 1.7-.7s1.4.2 1.8.7.6 1.2.6 2.1-.2 1.7-.6 2.2c-.4.5-1 .7-1.8.7s-1.4-.2-1.7-.7zm2.7-.7c.2-.3.3-.8.3-1.5s-.1-1.1-.3-1.4c-.2-.3-.5-.4-.9-.4s-.7.2-.9.4-.3.8-.3 1.4.1 1.2.3 1.5.5.4.9.4.7-.2.9-.4zm.8 6h-1.3l6.3-10.4h1.3l-6.2 10.4h-.1zm5-.7c-.4-.5-.6-1.2-.6-2.1s.2-1.7.6-2.1c.4-.5 1-.7 1.7-.7s1.4.2 1.8.7c.4.5.6 1.2.6 2.1s-.2 1.6-.6 2.1-1 .7-1.8.7-1.4-.2-1.7-.7zm2.7-.7c.2-.3.3-.8.3-1.4s-.1-1.1-.3-1.4-.5-.5-.9-.5-.7.2-.9.4c-.2.3-.3.8-.3 1.5s.1 1.2.3 1.4c.2.3.5.4.9.4s.7-.2.9-.4z"/></g><circle cx="33.2" cy="763.8" r="8" style="fill:#6e027f"/><g><path class="st17" d="M54.1 676.9c-.7-.5-1.2-1.1-1.6-1.8-.4-.8-.6-1.7-.6-2.7s.2-1.9.6-2.7c.4-.8.9-1.4 1.6-1.8s1.5-.7 2.4-.7 1.3 0 1.9.4 1.1.6 1.5 1.1.6 1 .7 1.7h-1.3c0-.7-.5-1.2-.9-1.5s-1.1-.5-1.8-.5-1.2.2-1.7.5-.9.8-1.1 1.4c-.3.6-.4 1.3-.4 2.1s0 1.5.4 2.2.6 1.1 1.1 1.4c.5.3 1.1.5 1.7.5s1.4-.2 1.9-.7.8-1.1.9-2h1.3c0 .8-.4 1.5-.7 2.1s-.9 1-1.4 1.3-1.3.5-2.1.5-1.7-.2-2.4-.7zM63.7 677c-.5-.3-.9-.8-1.2-1.3-.3-.6-.4-1.2-.4-2s0-1.4.4-2c.3-.6.7-1 1.2-1.3.5-.3 1.1-.5 1.8-.5s1.3.2 1.8.5.9.7 1.2 1.3c.3.6.4 1.2.4 2s0 1.4-.4 2-.7 1-1.2 1.4-1.1.5-1.8.5-1.3-.2-1.8-.5zm3-.9c.3-.2.6-.6.8-1 .2-.4.3-.9.3-1.5s0-1-.3-1.4c-.2-.4-.4-.7-.8-.9-.3-.2-.7-.3-1.2-.3s-.8 0-1.2.3c-.3.2-.6.5-.8 1s-.3.9-.3 1.4 0 1 .3 1.4c.2.4.4.7.8 1 .3.2.7.3 1.2.3s.9 0 1.2-.3zM72.1 677.3h-1.3v-10h1.3v10zM75.5 677c-.5-.3-.9-.8-1.2-1.3-.3-.6-.4-1.2-.4-2s0-1.4.4-2 .7-1 1.2-1.3 1.1-.5 1.8-.5 1.3.2 1.8.5.9.7 1.2 1.3c.3.6.4 1.2.4 2s0 1.4-.4 2-.7 1-1.2 1.4-1.1.5-1.8.5-1.3-.2-1.8-.5zm3-.9c.3-.2.6-.6.8-1 .2-.4.3-.9.3-1.5s0-1-.3-1.4c-.2-.4-.4-.7-.8-.9-.3-.2-.7-.3-1.2-.3s-.8 0-1.2.3c-.3.2-.6.5-.8 1s-.3.9-.3 1.4 0 1 .3 1.4c.2.4.4.7.8 1 .3.2.7.3 1.2.3s.9 0 1.2-.3zM92 670.5c.4.4.6 1 .6 1.8v5h-1.3v-4.9c0-.4 0-.8-.3-1s-.5-.4-.9-.4-.9.2-1.2.5c-.3.4-.5 1-.5 1.8v3.9h-1.3v-4.9c0-.4 0-.8-.3-1s-.5-.4-.9-.4-.6 0-.9.2-.5.4-.6.8c-.2.4-.2.8-.2 1.4v3.8h-1.3v-7.2h1.2v1c.5-.8 1.2-1.2 2.2-1.2s.9 0 1.2.3.6.5.8.9c.5-.8 1.2-1.3 2.3-1.3s1.3.2 1.6.6l-.2.3zM99.9 670.4c.5.3.8.7 1.1 1.3.3.5.4 1.2.4 1.9s0 1.4-.4 2-.6 1.1-1.1 1.4-1 .5-1.7.5-1 0-1.4-.3-.7-.5-.9-.9v1.1h-1.1v-10h1.3v3.6c.2-.3.5-.6.9-.8s.8-.3 1.3-.3 1.1.2 1.6.5zm-.7 5.6c.3-.2.5-.6.7-1s.2-.9.2-1.5-.2-1.4-.5-1.8-.8-.6-1.5-.6-.8 0-1.1.3-.6.5-.7.9c-.2.4-.3.9-.3 1.4s0 1 .3 1.5c.2.4.4.7.7 1s.7.3 1.1.3.8 0 1.1-.4zM104.5 668.7h-1.3v-1.4h1.3v1.4zm0 8.6h-1.3v-7.2h1.3v7.2zM113.3 676.4v1h-.7c-.8 0-1.2-.3-1.2-1.1-.2.4-.6.7-1.1.9s-1 .3-1.6.3-.9 0-1.3-.2-.6-.4-.9-.7c-.2-.3-.3-.7-.3-1.1s.2-1.1.6-1.5 1-.6 1.9-.8l1.9-.2c.2 0 .3 0 .4-.2v-.7c0-.4 0-.7-.4-.8s-.7-.3-1.2-.3-.9 0-1.2.3c-.3.2-.4.5-.4 1h-1.3c0-.8.4-1.4.9-1.8s1.2-.6 2.2-.6 1.6.2 2.1.6.7 1 .7 1.7v4h.7zm-3.2-.1c.3-.2.6-.4.8-.6s.3-.5.3-.8v-1l-2.2.3c-.5 0-.8.2-1.1.4s-.3.5-.3.8 0 .7.4.8c.2.2.6.3 1 .3s.7 0 1.1-.2zM122 674.3h-3.9v-1.2h3.9v1.2zM129 677.2c-.6-.2-1-.6-1.4-1-.3-.5-.5-1-.5-1.6s.2-1.2.5-1.6.8-.8 1.4-.9c-.4-.2-.8-.5-1.1-.9s-.4-.8-.4-1.3 0-1 .4-1.4c.3-.4.7-.7 1.2-.9s1.1-.3 1.7-.3 1.2 0 1.7.3.9.5 1.2.9.4.8.4 1.4-.1 1-.4 1.3-.6.7-1.1.9c.6.2 1.1.5 1.4.9.3.4.5 1 .5 1.6s-.2 1.2-.5 1.6-.8.8-1.4 1c-.6.2-1.2.3-1.9.3s-1.4 0-1.9-.3h.2zm3.3-1c.4-.2.6-.4.9-.7.2-.3.3-.7.3-1.1s-.1-.8-.3-1c-.2-.3-.5-.5-.9-.7s-.8-.2-1.3-.2-.9 0-1.3.2-.6.4-.9.7c-.2.3-.3.6-.3 1s.1.8.3 1.1.5.5.9.7.8.2 1.3.2.9 0 1.3-.2zm.2-5.2c.4-.3.5-.7.5-1.2s-.2-.9-.5-1.2-.9-.4-1.5-.4-1.2 0-1.5.4-.5.7-.5 1.2.2.9.5 1.2.9.4 1.5.4 1.2 0 1.5-.4zM137.9 672.2c-.4-.5-.6-1.2-.6-2.2s.2-1.7.6-2.1c.4-.5 1-.7 1.7-.7s1.4.2 1.8.7c.4.5.6 1.2.6 2.1s-.2 1.7-.6 2.2c-.4.5-1 .7-1.8.7s-1.4-.2-1.7-.7zm2.7-.7c.2-.3.3-.8.3-1.5s-.1-1.1-.3-1.4c-.2-.3-.5-.4-.9-.4s-.7.2-.9.4c-.2.3-.3.8-.3 1.4s.1 1.2.3 1.5.5.4.9.4.7-.2.9-.4zm.9 6h-1.3l6.3-10.4h1.3l-6.2 10.4h-.1zm5-.7c-.4-.5-.6-1.2-.6-2.1s.2-1.7.6-2.1c.4-.5 1-.7 1.7-.7s1.4.2 1.8.7c.4.5.6 1.2.6 2.1s-.2 1.7-.6 2.1c-.4.5-1 .7-1.8.7s-1.4-.2-1.7-.7zm2.7-.7c.2-.3.3-.8.3-1.4s-.1-1.1-.3-1.4-.5-.5-.9-.5-.7.2-.9.4c-.2.3-.3.8-.3 1.5s.1 1.2.3 1.4c.2.3.5.4.9.4s.7-.2.9-.4z"/></g><circle cx="33.2" cy="672.6" r="8" style="fill:#0055a8"/><g><path class="st17" d="M58 698.3c.5.2.9.5 1.1 1 .3.4.4 1 .4 1.6s0 1.2-.4 1.6c-.3.4-.6.8-1.1 1s-1.1.3-1.7.3h-2.8v4.2h-1.3v-10h4.1c.6 0 1.2 0 1.7.3zm-1.7 4.3c.6 0 1.1-.2 1.4-.5s.5-.8.5-1.3-.2-1-.5-1.3-.8-.4-1.5-.4h-2.7v3.5h2.8zM67.4 704.6H62c0 .8.2 1.4.6 1.8s.9.6 1.6.6.9 0 1.2-.3c.3-.2.6-.5.7-1h1.2c-.2.9-.6 1.4-1.2 1.8-.6.4-1.2.6-2 .6s-1.3-.2-1.8-.5-.9-.8-1.2-1.3c-.3-.6-.4-1.2-.4-2s0-1.4.4-2c.3-.6.7-1 1.2-1.3s1.1-.5 1.8-.5 1.3.2 1.8.4c.5.3.9.7 1.1 1.2.3.5.4 1.2.4 1.9v.5zm-4.7-2.5c-.4.4-.6.9-.7 1.6h4.2c0-.7-.3-1.2-.7-1.6-.4-.4-.8-.5-1.4-.5s-1.1.2-1.4.5zM73.1 700.5v1.2h-.5c-.3 0-.6 0-1 .2-.3.2-.6.4-.8.8s-.3.7-.3 1.2v4h-1.3v-7.2h1.2v1.4c.5-1 1.2-1.6 2.2-1.6h.5zM79.2 700.7h1.3v7.2h-1.2v-1c-.2.4-.6.7-1 .9s-.9.3-1.4.3-.9 0-1.3-.3-.6-.5-.9-.8-.3-.8-.3-1.3v-5h1.3v4.8c0 1 .5 1.5 1.4 1.5s.7 0 1-.2.6-.4.8-.7c.2-.3.3-.8.3-1.3v-4zM90 704.9h-3.9v-1.2H90v1.2zM97.2 707.8c-.5-.2-.9-.6-1.1-1s-.5-.9-.5-1.5h1.3c0 .6.3 1 .7 1.3.4.3.9.5 1.4.5s1.2-.2 1.6-.6.6-1 .6-1.7 0-.9-.2-1.2-.4-.6-.7-.8c-.3-.2-.7-.3-1.1-.3-.8 0-1.4.3-1.8.9h-1.3l1-5.3h5v1.2H98l-.5 2.8c.3-.2.6-.3.9-.5.3 0 .7-.2 1.1-.2.6 0 1.2.2 1.7.5s.8.7 1.1 1.2c.2.5.4 1.1.4 1.7s0 1.2-.4 1.8c-.3.5-.7.9-1.2 1.2s-1.1.5-1.9.5-1.2 0-1.6-.3l-.4-.2zM105.9 702.8c-.4-.5-.6-1.2-.6-2.2s.2-1.7.6-2.1c.4-.5 1-.7 1.7-.7s1.4.2 1.8.7.6 1.2.6 2.1-.2 1.7-.6 2.2-1 .7-1.8.7-1.4-.2-1.7-.7zm2.7-.7c.2-.3.3-.8.3-1.5s0-1.1-.3-1.4c-.2-.3-.5-.4-.9-.4s-.7.2-.9.4-.3.8-.3 1.4 0 1.2.3 1.5c.2.3.5.4.9.4s.7-.2.9-.4zm.9 6h-1.3l6.3-10.4h1.3l-6.2 10.4h-.1zm5-.7c-.4-.5-.6-1.2-.6-2.1s.2-1.7.6-2.1c.4-.5 1-.7 1.7-.7s1.4.2 1.8.7.6 1.2.6 2.1-.2 1.7-.6 2.1c-.4.5-1 .7-1.8.7s-1.4-.2-1.7-.7zm2.6-.7c.2-.3.3-.8.3-1.4s0-1.1-.3-1.4-.5-.5-.9-.5-.7.2-.9.4c-.2.3-.3.8-.3 1.5s0 1.2.3 1.4c.2.3.5.4.9.4s.7-.2.9-.4z"/></g><circle cx="33.2" cy="703.2" r="8" style="fill:#29b0c3"/><g><path class="st17" d="M283.7 615.7c-.7-.5-1.2-1.1-1.6-1.8-.4-.8-.5-1.7-.5-2.7s.2-1.9.5-2.7c.4-.8.9-1.4 1.6-1.8.7-.4 1.5-.7 2.4-.7s1.3 0 1.9.4c.6.3 1.1.6 1.5 1.1s.6 1 .7 1.7h-1.3c-.1-.7-.5-1.2-1-1.5s-1.1-.5-1.8-.5-1.2.2-1.7.5-.9.8-1.1 1.4c-.3.6-.4 1.3-.4 2.1s.1 1.5.4 2.2.6 1.1 1.1 1.4 1.1.5 1.7.5 1.4-.2 2-.7c.5-.5.8-1.1.9-2h1.3c-.1.8-.4 1.5-.7 2.1s-.9 1-1.4 1.3-1.3.5-2 .5-1.7-.2-2.4-.7h-.1zM297 609c.4.2.6.5.9.8s.3.8.3 1.3v5h-1.3v-4.8c0-1-.5-1.5-1.4-1.5s-.7 0-1 .2-.6.4-.8.7-.3.8-.3 1.3v4h-1.3v-10h1.3v3.7c.2-.3.6-.6 1-.8s.9-.3 1.4-.3.9 0 1.3.3h-.1zM301.6 607.6h-1.3v-1.4h1.3v1.4zm0 8.5h-1.3v-7.2h1.3v7.2zM305.1 616.1h-1.3v-10h1.3v10zM313.7 612.8h-5.4c0 .8.2 1.4.6 1.8.4.4.9.6 1.6.6s.9 0 1.2-.3c.3-.2.6-.5.7-1h1.2c-.2.9-.6 1.4-1.2 1.8s-1.2.6-2 .6-1.3-.2-1.8-.5-.9-.8-1.2-1.3-.4-1.2-.4-2 .1-1.4.4-2 .7-1 1.2-1.3 1.1-.5 1.8-.5 1.3.2 1.8.4c.5.3.9.7 1.1 1.2.3.5.4 1.2.4 1.9v.5zm-4.8-2.5c-.4.4-.6.9-.7 1.6h4.2c0-.7-.3-1.2-.7-1.6-.4-.4-.8-.5-1.4-.5s-1.1.2-1.5.5h.1zM322.8 613.1h-3.9v-1.2h3.9v1.2zM335 615v1.2h-6.6c0-.6.1-1.2.3-1.7s.4-.9.8-1.2.7-.7 1.2-1l1.7-1.1c.5-.3.8-.6 1-.9s.3-.7.3-1.2-.2-1-.5-1.4c-.4-.3-.8-.5-1.4-.5s-1.1.2-1.5.6c-.3.4-.5.9-.5 1.7v.2h-1.3v-.2c0-.7.1-1.3.4-1.8s.7-.9 1.2-1.2 1.1-.4 1.7-.4 1.2 0 1.6.4c.5.2.9.6 1.1 1s.4 1 .4 1.6c0 1.2-.6 2.2-1.9 3l-1.2.8c-.5.3-.9.6-1.1.8-.3.2-.5.4-.6.6s-.2.4-.2.7h5.1zM338.7 611c-.4-.5-.6-1.2-.6-2.2s.2-1.6.6-2.1 1-.7 1.7-.7 1.4.2 1.8.7.6 1.2.6 2.1-.2 1.7-.6 2.2-1 .7-1.8.7-1.4-.2-1.7-.7zm2.7-.7c.2-.3.3-.8.3-1.5s-.1-1.1-.3-1.4c-.2-.3-.5-.4-.9-.4s-.7.2-.9.4c-.2.3-.3.8-.3 1.4s.1 1.2.3 1.5c.2.3.5.4.9.4s.7-.2.9-.4zm.9 6.1H341l6.3-10.4h1.3l-6.2 10.4zm4.9-.8c-.4-.5-.6-1.2-.6-2.1s.2-1.7.6-2.1 1-.7 1.7-.7 1.4.2 1.8.7.6 1.2.6 2.1-.2 1.7-.6 2.1c-.4.5-1 .7-1.8.7s-1.4-.2-1.7-.7zm2.7-.7c.2-.3.3-.8.3-1.4s-.1-1.1-.3-1.4-.5-.5-.9-.5-.7.2-.9.4c-.2.3-.3.8-.3 1.5s.1 1.2.3 1.4c.2.3.5.4.9.4s.7-.2.9-.4z"/><circle class="st9" cx="262.8" cy="611.4" r="8"/></g><g><path class="st17" d="m285.9 643.9 2.4-7.1h1.4l-3.6 10h-1.5l-3.6-10h1.4l2.4 7.1.5 1.5.5-1.5h.1zM296.6 643.4h-5.4c0 .8.2 1.4.6 1.8.4.4.9.6 1.6.6s.9 0 1.2-.3c.3-.2.6-.5.7-1h1.2c-.2.9-.6 1.4-1.2 1.8-.6.4-1.2.6-2 .6s-1.3-.2-1.8-.5-.9-.8-1.2-1.3c-.3-.6-.4-1.2-.4-2s.1-1.4.4-2 .7-1 1.2-1.3 1.1-.5 1.8-.5 1.3.2 1.8.4c.5.3.9.7 1.1 1.2.3.5.4 1.2.4 1.9v.5zm-4.8-2.5c-.4.4-.6.9-.7 1.6h4.2c0-.7-.3-1.2-.7-1.6-.4-.4-.8-.5-1.4-.5s-1.1.2-1.5.5h.1zM303.3 639.6c.4.2.6.5.9.8s.3.8.3 1.3v5h-1.3v-4.8c0-1-.5-1.5-1.4-1.5s-.7 0-1 .2-.6.4-.8.7-.3.8-.3 1.3v4h-1.3v-7.2h1.2v1c.2-.4.6-.7 1-.9s.9-.3 1.4-.3.9 0 1.3.3zM313 643.4h-5.4c0 .8.2 1.4.6 1.8.4.4.9.6 1.6.6s.9 0 1.2-.3c.3-.2.6-.5.7-1h1.2c-.2.9-.6 1.4-1.2 1.8-.6.4-1.2.6-2 .6s-1.3-.2-1.8-.5-.9-.8-1.2-1.3c-.3-.6-.4-1.2-.4-2s.1-1.4.4-2 .7-1 1.2-1.3 1.1-.5 1.8-.5 1.3.2 1.8.4c.5.3.9.7 1.1 1.2.3.5.4 1.2.4 1.9v.5zm-4.7-2.5c-.4.4-.6.9-.7 1.6h4.2c0-.7-.3-1.2-.7-1.6-.4-.4-.8-.5-1.4-.5s-1.1.2-1.5.5h.1zM320.4 645.7v1h-6v-.9l3.1-4c.5-.6.9-1 1.1-1.3h-4v-1h5.6v.8l-3.3 4.1c-.5.6-.8 1-1.1 1.3h4.6zM327 639.5h1.3v7.2h-1.2v-1c-.2.4-.6.7-1 .9s-.9.3-1.4.3-.9 0-1.3-.3-.6-.5-.9-.8-.3-.8-.3-1.3v-5h1.3v4.8c0 1 .5 1.5 1.4 1.5s.7 0 1-.2.6-.4.8-.7c.2-.3.3-.8.3-1.3v-4zM336.9 643.4h-5.4c0 .8.2 1.4.6 1.8.4.4.9.6 1.6.6s.9 0 1.2-.3c.3-.2.6-.5.7-1h1.2c-.2.9-.6 1.4-1.2 1.8-.6.4-1.2.6-2 .6s-1.3-.2-1.8-.5-.9-.8-1.2-1.3c-.3-.6-.4-1.2-.4-2s.1-1.4.4-2 .7-1 1.2-1.3 1.1-.5 1.8-.5 1.3.2 1.8.4c.5.3.9.7 1.1 1.2.3.5.4 1.2.4 1.9v.5zm-4.8-2.5c-.4.4-.6.9-.7 1.6h4.2c0-.7-.3-1.2-.7-1.6-.4-.4-.8-.5-1.4-.5s-1.1.2-1.5.5h.1zM340 646.7h-1.3v-10h1.3v10zM348.8 645.8v1h-.7c-.8 0-1.2-.3-1.2-1.1-.2.4-.6.7-1 .9s-1 .3-1.6.3-.9 0-1.3-.2-.6-.4-.9-.7-.3-.7-.3-1.1.2-1.1.6-1.5 1-.6 1.9-.8l1.9-.2c.2 0 .3 0 .4-.2 0 0 .1-.2.1-.4v-.3c0-.4-.1-.7-.4-.8s-.7-.3-1.2-.3-.9 0-1.2.3-.4.5-.5 1h-1.3c0-.8.4-1.4.9-1.8s1.2-.6 2.2-.6 1.6.2 2.1.6c.5.4.7 1 .7 1.7v3.5c0 .2 0 .4.1.5h.7zm-3.3-.1c.3-.2.6-.4.8-.6.2-.3.3-.5.3-.8v-1l-2.2.3c-.5 0-.8.2-1.1.4s-.3.5-.3.8.1.7.4.8c.2.2.6.3 1 .3s.7 0 1.1-.2zM357.5 643.7h-3.9v-1.2h3.9v1.2zM369.7 645.6v1.2h-6.6c0-.6.1-1.2.3-1.7s.4-.9.8-1.2c.3-.3.7-.7 1.2-1l1.7-1.1c.5-.3.8-.6 1-.9.2-.3.3-.7.3-1.2s-.2-1-.5-1.4c-.4-.3-.8-.5-1.4-.5s-1.1.2-1.5.6c-.3.4-.5.9-.5 1.7v.2h-1.3v-.2c0-.7.1-1.3.4-1.8s.7-.9 1.2-1.2 1.1-.4 1.7-.4 1.2 0 1.6.4c.5.2.9.6 1.1 1 .3.5.4 1 .4 1.6 0 1.2-.6 2.2-1.9 3l-1.2.8c-.5.3-.9.6-1.1.8s-.5.4-.6.6c-.1.2-.2.4-.2.7h5.1zM373.4 641.6c-.4-.5-.6-1.2-.6-2.2s.2-1.7.6-2.1c.4-.5 1-.7 1.7-.7s1.4.2 1.8.7.6 1.2.6 2.1-.2 1.7-.6 2.2-1 .7-1.8.7-1.4-.2-1.7-.7zm2.7-.7c.2-.3.3-.8.3-1.5s-.1-1.1-.3-1.4c-.2-.3-.5-.4-.9-.4s-.7.2-.9.4c-.2.3-.3.8-.3 1.4s.1 1.2.3 1.5c.2.3.5.4.9.4s.7-.2.9-.4zm.9 6h-1.3l6.3-10.4h1.3l-6.2 10.4zm4.9-.7c-.4-.5-.6-1.2-.6-2.1s.2-1.7.6-2.1c.4-.5 1-.7 1.7-.7s1.4.2 1.8.7.6 1.2.6 2.1-.2 1.7-.6 2.1c-.4.5-1 .7-1.8.7s-1.4-.2-1.7-.7zm2.7-.7c.2-.3.3-.8.3-1.4s-.1-1.1-.3-1.4-.5-.5-.9-.5-.7.2-.9.4c-.2.3-.3.8-.3 1.5s.1 1.2.3 1.4c.2.3.5.4.9.4s.7-.2.9-.4z"/><circle class="st0" cx="262.8" cy="642" r="8"/></g><g><path class="st17" d="M287.6 728.9c.5.2.9.5 1.1 1 .3.4.4 1 .4 1.6s-.1 1.2-.4 1.6-.6.8-1.1 1-1 .3-1.7.3h-2.8v4.2h-1.3v-10h4.1c.6 0 1.2 0 1.7.3zm-1.7 4.3c.6 0 1.1-.2 1.4-.5s.5-.8.5-1.3-.2-1-.5-1.3-.8-.4-1.5-.4h-2.7v3.5h2.8zM297.5 737.6v1h-.7c-.8 0-1.2-.3-1.2-1.1-.2.4-.6.7-1 .9s-1 .3-1.6.3-.9 0-1.3-.2-.6-.4-.9-.7-.3-.7-.3-1.1.2-1.1.6-1.5 1-.6 1.9-.8l1.9-.2c.2 0 .3 0 .4-.2 0 0 .1-.2.1-.4v-.3c0-.4-.1-.7-.4-.8s-.7-.3-1.2-.3-.9 0-1.2.3-.4.5-.5 1h-1.3c0-.8.4-1.4.9-1.8s1.2-.6 2.2-.6 1.6.2 2.1.6.7 1 .7 1.7v3.5c0 .2 0 .4.1.5h.7zm-3.3-.1c.3-.2.6-.4.8-.6.2-.3.3-.5.3-.8v-1l-2.2.3c-.5 0-.8.2-1.1.4s-.3.5-.3.8.1.7.4.8c.2.2.6.3 1 .3s.7 0 1.1-.2zM302.7 731.1v1.2h-.5c-.3 0-.6 0-1 .2s-.6.4-.8.8-.3.7-.3 1.2v4h-1.3v-7.2h1.2v1.4c.5-1 1.2-1.6 2.2-1.6h.4zM310.5 737.6v1h-.7c-.8 0-1.2-.3-1.2-1.1-.2.4-.6.7-1 .9s-1 .3-1.6.3-.9 0-1.3-.2-.6-.4-.9-.7-.3-.7-.3-1.1.2-1.1.6-1.5 1-.6 1.9-.8l1.9-.2c.2 0 .3 0 .4-.2 0 0 .1-.2.1-.4v-.3c0-.4-.1-.7-.4-.8s-.7-.3-1.2-.3-.9 0-1.2.3-.4.5-.5 1h-1.3c0-.8.4-1.4.9-1.8s1.2-.6 2.2-.6 1.6.2 2.1.6.7 1 .7 1.7v3.5c0 .2 0 .4.1.5h.7zm-3.2-.1c.3-.2.6-.4.8-.6.2-.3.3-.5.3-.8v-1l-2.2.3c-.5 0-.8.2-1.1.4s-.3.5-.3.8.1.7.4.8c.2.2.6.3 1 .3s.7 0 1.1-.2zM317 731.3h1.2v7c0 1.1-.3 1.9-.9 2.5s-1.4.8-2.5.8-1.6-.2-2.1-.5-.9-.9-1-1.6h1.3c0 .4.3.7.6.8.3.2.7.2 1.2.2s.9 0 1.2-.2c.3 0 .5-.4.7-.7s.2-.7.2-1.2v-.9c-.2.4-.5.7-1 .9s-.8.3-1.3.3-1.2-.2-1.7-.5-.8-.8-1.1-1.4-.4-1.2-.4-2 .1-1.4.4-1.9c.3-.6.6-1 1.1-1.3s1-.5 1.6-.5 1 0 1.4.3.7.5 1 .9v-1.1zm-1.2 5.9c.3-.2.6-.5.8-1 .2-.4.3-.9.3-1.5s0-1-.3-1.4c-.2-.4-.4-.7-.7-.9s-.7-.3-1.1-.3c-.6 0-1.1.2-1.5.7s-.5 1.1-.5 1.9 0 1 .2 1.5c.2.4.4.7.7 1s.6.3 1.1.3.8 0 1.1-.3h-.1zM325.2 731.3h1.3v7.2h-1.2v-1c-.2.4-.6.7-1 .9s-.9.3-1.4.3-.9 0-1.3-.3-.6-.5-.9-.8-.3-.8-.3-1.3v-5h1.3v4.8c0 1 .5 1.5 1.4 1.5s.7 0 1-.2.6-.4.8-.7c.2-.3.3-.8.3-1.3v-4zM335.3 737.6v1h-.7c-.8 0-1.2-.3-1.2-1.1-.2.4-.6.7-1 .9s-1 .3-1.6.3-.9 0-1.3-.2-.6-.4-.9-.7-.3-.7-.3-1.1.2-1.1.6-1.5 1-.6 1.9-.8l1.9-.2c.2 0 .3 0 .4-.2 0 0 .1-.2.1-.4v-.3c0-.4-.1-.7-.4-.8s-.7-.3-1.2-.3-.9 0-1.2.3-.4.5-.5 1h-1.3c0-.8.4-1.4.9-1.8s1.2-.6 2.2-.6 1.6.2 2.1.6.7 1 .7 1.7v3.5c0 .2 0 .4.1.5h.7zm-3.2-.1c.3-.2.6-.4.8-.6.2-.3.3-.5.3-.8v-1l-2.2.3c-.5 0-.8.2-1.1.4s-.3.5-.3.8.1.7.4.8c.2.2.6.3 1 .3s.7 0 1.1-.2zM341.2 731.3h1.3l-3.4 8.6c-.1.4-.3.7-.5.9s-.4.3-.6.4-.5 0-.9 0h-.8v-1.1h1.2c.1 0 .3-.2.4-.3s.2-.3.3-.6l.3-.9-2.9-7.2h1.4l1.7 4.5c.1.4.3.8.4 1.2.1-.4.2-.8.4-1.2l1.6-4.5h.1zM351.3 735.5h-3.9v-1.2h3.9v1.2zM359 738.5v-7.2h-2.6v-1h1.4c.3 0 .5-.2.7-.3.4-.3.6-.7.8-1.2v-.2h1.1v10H359zM364.6 733.4c-.4-.5-.6-1.2-.6-2.2s.2-1.7.6-2.1c.4-.5 1-.7 1.7-.7s1.4.2 1.8.7.6 1.2.6 2.1-.2 1.7-.6 2.2-1 .7-1.8.7-1.4-.2-1.7-.7zm2.6-.7c.2-.3.3-.8.3-1.5s-.1-1.1-.3-1.4c-.2-.3-.5-.4-.9-.4s-.7.2-.9.4c-.2.3-.3.8-.3 1.4s.1 1.2.3 1.5c.2.3.5.4.9.4s.7-.2.9-.4zm.9 6h-1.3l6.3-10.4h1.3l-6.2 10.4zm5-.7c-.4-.5-.6-1.2-.6-2.1s.2-1.7.6-2.1c.4-.5 1-.7 1.7-.7s1.4.2 1.8.7.6 1.2.6 2.1-.2 1.6-.6 2.1-1 .7-1.8.7-1.4-.2-1.7-.7zm2.7-.7c.2-.3.3-.8.3-1.4s-.1-1.1-.3-1.4-.5-.5-.9-.5-.7.2-.9.4c-.2.3-.3.8-.3 1.5s.1 1.2.3 1.4c.2.3.5.4.9.4s.7-.2.9-.4z"/></g><circle class="st13" cx="262.8" cy="733.8" r="8"/><g><path class="st17" d="M283.7 676.9c-.7-.5-1.2-1.1-1.6-1.8-.4-.8-.5-1.7-.5-2.7s.2-1.9.5-2.7c.4-.8.9-1.4 1.6-1.8s1.5-.7 2.4-.7 1.3 0 1.9.4c.6.3 1.1.6 1.5 1.1s.6 1 .7 1.7h-1.3c-.1-.7-.5-1.2-1-1.5s-1.1-.5-1.8-.5-1.2.2-1.7.5-.9.8-1.1 1.4c-.3.6-.4 1.3-.4 2.1s.1 1.5.4 2.2.6 1.1 1.1 1.4c.5.3 1.1.5 1.7.5s1.4-.2 2-.7c.5-.5.8-1.1.9-2h1.3c-.1.8-.4 1.5-.7 2.1s-.9 1-1.4 1.3-1.3.5-2 .5-1.7-.2-2.4-.7h-.1zM293.2 677c-.5-.3-.9-.8-1.2-1.3-.3-.6-.4-1.2-.4-2s.1-1.4.4-2 .7-1 1.2-1.3 1.1-.5 1.8-.5 1.3.2 1.8.5.9.7 1.2 1.3c.3.6.4 1.2.4 2s-.1 1.4-.5 2-.7 1-1.2 1.4-1.1.5-1.8.5-1.3-.2-1.8-.5h.1zm3-.9c.3-.2.6-.6.8-1 .2-.4.3-.9.3-1.5s0-1-.3-1.4c-.2-.4-.4-.7-.8-.9-.3-.2-.7-.3-1.2-.3s-.8 0-1.2.3c-.3.2-.6.5-.8 1s-.3.9-.3 1.4 0 1 .3 1.4.4.7.8 1c.3.2.7.3 1.2.3s.9 0 1.2-.3zM301.7 677.3h-1.3v-10h1.3v10zM305.1 677c-.5-.3-.9-.8-1.2-1.3-.3-.6-.4-1.2-.4-2s.1-1.4.4-2 .7-1 1.2-1.3 1.1-.5 1.8-.5 1.3.2 1.8.5.9.7 1.2 1.3c.3.6.4 1.2.4 2s-.1 1.4-.5 2-.7 1-1.2 1.4-1.1.5-1.8.5-1.3-.2-1.8-.5h.1zm3-.9c.3-.2.6-.6.8-1 .2-.4.3-.9.3-1.5s0-1-.3-1.4c-.2-.4-.4-.7-.8-.9-.3-.2-.7-.3-1.2-.3s-.8 0-1.2.3c-.3.2-.6.5-.8 1s-.3.9-.3 1.4 0 1 .3 1.4.4.7.8 1c.3.2.7.3 1.2.3s.9 0 1.2-.3zM321.6 670.5c.4.4.6 1 .6 1.8v5h-1.3v-4.9c0-.4-.1-.8-.3-1-.2-.2-.5-.4-.9-.4s-.9.2-1.2.5c-.3.4-.5 1-.5 1.8v3.9h-1.3v-4.9c0-.4-.1-.8-.3-1-.2-.2-.5-.4-.9-.4s-.6 0-.9.2-.5.4-.6.8c-.2.4-.2.8-.2 1.4v3.8h-1.3v-7.2h1.2v1c.5-.8 1.2-1.2 2.2-1.2s.9 0 1.2.3.6.5.8.9c.5-.8 1.2-1.3 2.3-1.3s1.3.2 1.6.6l-.2.3zM329.5 670.4c.5.3.8.7 1.1 1.3.3.5.4 1.2.4 1.9s-.1 1.4-.4 2-.6 1.1-1.1 1.4-1 .5-1.7.5-1 0-1.4-.3-.7-.5-.9-.9v1.1h-1.1v-10h1.3v3.6c.2-.3.5-.6.9-.8s.8-.3 1.3-.3 1.1.2 1.6.5zm-.8 5.6c.3-.2.5-.6.7-1s.2-.9.2-1.5-.2-1.4-.5-1.8c-.4-.4-.8-.6-1.5-.6s-.8 0-1.1.3-.6.5-.7.9-.3.9-.3 1.4 0 1 .3 1.5c.2.4.4.7.7 1s.7.3 1.1.3.8 0 1.1-.4zM334.1 668.7h-1.3v-1.4h1.3v1.4zm0 8.6h-1.3v-7.2h1.3v7.2zM342.9 676.4v1h-.7c-.8 0-1.2-.3-1.2-1.1-.2.4-.6.7-1 .9s-1 .3-1.6.3-.9 0-1.3-.2-.6-.4-.9-.7-.3-.7-.3-1.1.2-1.1.6-1.5 1-.6 1.9-.8l1.9-.2c.2 0 .3 0 .4-.2 0 0 .1-.2.1-.4v-.3c0-.4-.1-.7-.4-.8s-.7-.3-1.2-.3-.9 0-1.2.3-.4.5-.5 1h-1.3c0-.8.4-1.4.9-1.8s1.2-.6 2.2-.6 1.6.2 2.1.6c.5.4.7 1 .7 1.7v3.5c0 .2 0 .4.1.5h.7zm-3.2-.1c.3-.2.6-.4.8-.6.2-.3.3-.5.3-.8v-1l-2.2.3c-.5 0-.8.2-1.1.4s-.3.5-.3.8.1.7.4.8c.2.2.6.3 1 .3s.7 0 1.1-.2zM351.6 674.3h-3.9v-1.2h3.9v1.2zM358.6 677.2c-.6-.2-1-.6-1.4-1-.3-.5-.5-1-.5-1.6s.2-1.2.5-1.6c.4-.4.8-.8 1.4-.9-.5-.2-.8-.5-1-.9s-.4-.8-.4-1.3.1-1 .4-1.4.7-.7 1.2-.9 1.1-.3 1.7-.3 1.2 0 1.7.3.9.5 1.2.9c.3.4.4.8.4 1.4s-.1 1-.4 1.3-.6.7-1 .9c.6.2 1 .5 1.4.9.3.4.5 1 .5 1.6s-.2 1.2-.5 1.6-.8.8-1.4 1-1.2.3-1.9.3-1.4 0-1.9-.3zm3.2-1c.4-.2.6-.4.9-.7s.3-.7.3-1.1-.1-.8-.3-1c-.2-.3-.5-.5-.9-.7s-.8-.2-1.3-.2-.9 0-1.3.2-.6.4-.9.7-.3.6-.3 1 .1.8.3 1.1c.2.3.5.5.9.7s.8.2 1.3.2.9 0 1.3-.2zm.3-5.2c.4-.3.5-.7.5-1.2s-.2-.9-.5-1.2-.9-.4-1.5-.4-1.2 0-1.5.4-.5.7-.5 1.2.2.9.5 1.2.9.4 1.5.4 1.2 0 1.5-.4zM367.5 672.2c-.4-.5-.6-1.2-.6-2.2s.2-1.7.6-2.1c.4-.5 1-.7 1.7-.7s1.4.2 1.8.7.6 1.2.6 2.1-.2 1.7-.6 2.2-1 .7-1.8.7-1.4-.2-1.7-.7zm2.7-.7c.2-.3.3-.8.3-1.5s-.1-1.1-.3-1.4c-.2-.3-.5-.4-.9-.4s-.7.2-.9.4c-.2.3-.3.8-.3 1.4s.1 1.2.3 1.5c.2.3.5.4.9.4s.7-.2.9-.4zm.9 6h-1.3l6.3-10.4h1.3l-6.2 10.4zm5-.7c-.4-.5-.6-1.2-.6-2.1s.2-1.7.6-2.1c.4-.5 1-.7 1.7-.7s1.4.2 1.8.7.6 1.2.6 2.1-.2 1.7-.6 2.1c-.4.5-1 .7-1.8.7s-1.4-.2-1.7-.7zm2.6-.7c.2-.3.3-.8.3-1.4s-.1-1.1-.3-1.4-.5-.5-.9-.5-.7.2-.9.4c-.2.3-.3.8-.3 1.5s.1 1.2.3 1.4c.2.3.5.4.9.4s.7-.2.9-.4z"/></g><circle class="st16" cx="262.8" cy="672.6" r="8"/><g><path class="st17" d="M289.2 703.5c.3.4.5.9.5 1.6s-.1 1.1-.4 1.5-.6.8-1.1 1-1.1.3-1.8.3h-4.6v-10h4.5c.6 0 1.1 0 1.6.3s.8.5 1 .8c.2.4.4.8.4 1.3s-.1 1-.4 1.3-.6.7-1.1.8c.6.2 1.1.5 1.4.9v.2zm-6.1-4.4v3.1h2.9c.6 0 1.1 0 1.4-.4.3-.3.5-.7.5-1.2s-.1-.9-.5-1.1-.7-.4-1.3-.4h-3zm3.2 7.7c.7 0 1.2-.2 1.5-.5.4-.3.5-.7.5-1.3s-.2-1-.5-1.3c-.4-.3-.9-.5-1.5-.5h-3.2v3.5h3.2zM293.1 707.6c-.5-.3-.9-.8-1.2-1.3-.3-.6-.4-1.2-.4-2s.1-1.4.4-2 .7-1 1.2-1.3 1.1-.5 1.8-.5 1.3.2 1.8.5.9.7 1.2 1.3c.3.6.4 1.2.4 2s-.1 1.4-.5 2-.7 1-1.2 1.4-1.1.5-1.8.5-1.3-.2-1.8-.5h.1zm3-.9c.3-.2.6-.6.8-1 .2-.4.3-.9.3-1.5s0-1-.3-1.4c-.2-.4-.4-.7-.8-.9-.3-.2-.7-.3-1.2-.3s-.8 0-1.2.3c-.3.2-.6.5-.8 1s-.3.9-.3 1.4 0 1 .3 1.4.4.7.8 1c.3.2.7.3 1.2.3s.9 0 1.2-.3zM301.5 707.9h-1.3v-10h1.3v10zM305.1 699.3h-1.3v-1.4h1.3v1.4zm0 8.6h-1.3v-7.2h1.3v7.2zM310.6 704.9l1.4-4.2h1.3l-2.6 7.2h-1.3l-2.8-7.2h1.4l1.4 4.2.6 2 .6-2zM316 699.3h-1.3v-1.4h1.3v1.4zm0 8.6h-1.3v-7.2h1.3v7.2zM324.8 707v1h-.7c-.8 0-1.2-.3-1.2-1.1-.2.4-.6.7-1 .9s-1 .3-1.6.3-.9 0-1.3-.2-.6-.4-.9-.7-.3-.7-.3-1.1.2-1.1.6-1.5 1-.6 1.9-.8l1.9-.2c.2 0 .3 0 .4-.2 0 0 .1-.2.1-.4v-.3c0-.4-.1-.7-.4-.8s-.7-.3-1.2-.3-.9 0-1.2.3-.4.5-.5 1h-1.3c0-.8.4-1.4.9-1.8s1.2-.6 2.2-.6 1.6.2 2.1.6c.5.4.7 1 .7 1.7v3.5c0 .2 0 .4.1.5h.7zm-3.2-.1c.3-.2.6-.4.8-.6.2-.3.3-.5.3-.8v-1l-2.2.3c-.5 0-.8.2-1.1.4s-.3.5-.3.8.1.7.4.8c.2.2.6.3 1 .3s.7 0 1.1-.2zM333.5 704.9h-3.9v-1.2h3.9v1.2zM341.1 707.9v-7.2h-2.6v-1h1.4c.3 0 .5-.2.7-.3.4-.3.6-.7.8-1.2v-.2h1.1v10h-1.4zM346.7 702.8c-.4-.5-.6-1.2-.6-2.2s.2-1.7.6-2.1c.4-.5 1-.7 1.7-.7s1.4.2 1.8.7.6 1.2.6 2.1-.2 1.7-.6 2.2-1 .7-1.8.7-1.4-.2-1.7-.7zm2.7-.7c.2-.3.3-.8.3-1.5s-.1-1.1-.3-1.4c-.2-.3-.5-.4-.9-.4s-.7.2-.9.4c-.2.3-.3.8-.3 1.4s.1 1.2.3 1.5c.2.3.5.4.9.4s.7-.2.9-.4zm.9 6H349l6.3-10.4h1.3l-6.2 10.4zm5-.7c-.4-.5-.6-1.2-.6-2.1s.2-1.7.6-2.1c.4-.5 1-.7 1.7-.7s1.4.2 1.8.7.6 1.2.6 2.1-.2 1.7-.6 2.1c-.4.5-1 .7-1.8.7s-1.4-.2-1.7-.7zm2.7-.7c.2-.3.3-.8.3-1.4s-.1-1.1-.3-1.4-.5-.5-.9-.5-.7.2-.9.4c-.2.3-.3.8-.3 1.5s.1 1.2.3 1.4c.2.3.5.4.9.4s.7-.2.9-.4z"/></g><circle class="st18" cx="262.8" cy="703.2" r="8"/></svg>